<mxfile host="app.diagrams.net" modified="2023-08-29T02:22:02.124Z" agent="Mozilla/5.0 (Windows NT 10.0; Win64; x64) AppleWebKit/537.36 (KHTML, like Gecko) Chrome/116.0.0.0 Safari/537.36" etag="eK0aIjf3h75p6qfiHNHq" version="21.6.6" type="github">
  <diagram name="Page-1" id="AZwHGoutirsB3QH3uUrf">
    <mxGraphModel dx="1750" dy="2057" grid="1" gridSize="10" guides="1" tooltips="1" connect="1" arrows="1" fold="1" page="1" pageScale="1" pageWidth="850" pageHeight="1100" math="0" shadow="0">
      <root>
        <mxCell id="0" />
        <mxCell id="1" parent="0" />
        <mxCell id="db_hWNf274ALsjG5QtfP-115" value="" style="edgeStyle=orthogonalEdgeStyle;rounded=0;orthogonalLoop=1;jettySize=auto;html=1;exitX=1;exitY=0.5;exitDx=0;exitDy=0;entryX=0;entryY=0.5;entryDx=0;entryDy=0;" edge="1" parent="1" source="db_hWNf274ALsjG5QtfP-16" target="db_hWNf274ALsjG5QtfP-103">
          <mxGeometry relative="1" as="geometry" />
        </mxCell>
        <mxCell id="db_hWNf274ALsjG5QtfP-15" value="DiscountCode" style="shape=table;startSize=30;container=1;collapsible=0;childLayout=tableLayout;strokeColor=default;fontSize=16;" vertex="1" parent="1">
          <mxGeometry x="280" y="80" width="280" height="190" as="geometry" />
        </mxCell>
        <mxCell id="db_hWNf274ALsjG5QtfP-16" value="" style="shape=tableRow;horizontal=0;startSize=0;swimlaneHead=0;swimlaneBody=0;strokeColor=inherit;top=0;left=0;bottom=0;right=0;collapsible=0;dropTarget=0;fillColor=none;points=[[0,0.5],[1,0.5]];portConstraint=eastwest;fontSize=16;" vertex="1" parent="db_hWNf274ALsjG5QtfP-15">
          <mxGeometry y="30" width="280" height="40" as="geometry" />
        </mxCell>
        <mxCell id="db_hWNf274ALsjG5QtfP-17" value="PK" style="shape=partialRectangle;html=1;whiteSpace=wrap;connectable=0;strokeColor=inherit;overflow=hidden;fillColor=none;top=0;left=0;bottom=0;right=0;pointerEvents=1;fontSize=16;" vertex="1" parent="db_hWNf274ALsjG5QtfP-16">
          <mxGeometry width="50" height="40" as="geometry">
            <mxRectangle width="50" height="40" as="alternateBounds" />
          </mxGeometry>
        </mxCell>
        <mxCell id="db_hWNf274ALsjG5QtfP-18" value="DiscountCodeID" style="shape=partialRectangle;html=1;whiteSpace=wrap;connectable=0;strokeColor=inherit;overflow=hidden;fillColor=none;top=0;left=0;bottom=0;right=0;pointerEvents=1;fontSize=16;" vertex="1" parent="db_hWNf274ALsjG5QtfP-16">
          <mxGeometry x="50" width="160" height="40" as="geometry">
            <mxRectangle width="160" height="40" as="alternateBounds" />
          </mxGeometry>
        </mxCell>
        <mxCell id="db_hWNf274ALsjG5QtfP-19" value="string?" style="shape=partialRectangle;html=1;whiteSpace=wrap;connectable=0;strokeColor=inherit;overflow=hidden;fillColor=none;top=0;left=0;bottom=0;right=0;pointerEvents=1;fontSize=16;" vertex="1" parent="db_hWNf274ALsjG5QtfP-16">
          <mxGeometry x="210" width="70" height="40" as="geometry">
            <mxRectangle width="70" height="40" as="alternateBounds" />
          </mxGeometry>
        </mxCell>
        <mxCell id="db_hWNf274ALsjG5QtfP-20" value="" style="shape=tableRow;horizontal=0;startSize=0;swimlaneHead=0;swimlaneBody=0;strokeColor=inherit;top=0;left=0;bottom=0;right=0;collapsible=0;dropTarget=0;fillColor=none;points=[[0,0.5],[1,0.5]];portConstraint=eastwest;fontSize=16;" vertex="1" parent="db_hWNf274ALsjG5QtfP-15">
          <mxGeometry y="70" width="280" height="40" as="geometry" />
        </mxCell>
        <mxCell id="db_hWNf274ALsjG5QtfP-21" value="" style="shape=partialRectangle;html=1;whiteSpace=wrap;connectable=0;strokeColor=inherit;overflow=hidden;fillColor=none;top=0;left=0;bottom=0;right=0;pointerEvents=1;fontSize=16;" vertex="1" parent="db_hWNf274ALsjG5QtfP-20">
          <mxGeometry width="50" height="40" as="geometry">
            <mxRectangle width="50" height="40" as="alternateBounds" />
          </mxGeometry>
        </mxCell>
        <mxCell id="db_hWNf274ALsjG5QtfP-22" value="Status" style="shape=partialRectangle;html=1;whiteSpace=wrap;connectable=0;strokeColor=inherit;overflow=hidden;fillColor=none;top=0;left=0;bottom=0;right=0;pointerEvents=1;fontSize=16;" vertex="1" parent="db_hWNf274ALsjG5QtfP-20">
          <mxGeometry x="50" width="160" height="40" as="geometry">
            <mxRectangle width="160" height="40" as="alternateBounds" />
          </mxGeometry>
        </mxCell>
        <mxCell id="db_hWNf274ALsjG5QtfP-23" value="bool" style="shape=partialRectangle;html=1;whiteSpace=wrap;connectable=0;strokeColor=inherit;overflow=hidden;fillColor=none;top=0;left=0;bottom=0;right=0;pointerEvents=1;fontSize=16;" vertex="1" parent="db_hWNf274ALsjG5QtfP-20">
          <mxGeometry x="210" width="70" height="40" as="geometry">
            <mxRectangle width="70" height="40" as="alternateBounds" />
          </mxGeometry>
        </mxCell>
        <mxCell id="db_hWNf274ALsjG5QtfP-24" value="" style="shape=tableRow;horizontal=0;startSize=0;swimlaneHead=0;swimlaneBody=0;strokeColor=inherit;top=0;left=0;bottom=0;right=0;collapsible=0;dropTarget=0;fillColor=none;points=[[0,0.5],[1,0.5]];portConstraint=eastwest;fontSize=16;" vertex="1" parent="db_hWNf274ALsjG5QtfP-15">
          <mxGeometry y="110" width="280" height="40" as="geometry" />
        </mxCell>
        <mxCell id="db_hWNf274ALsjG5QtfP-25" value="" style="shape=partialRectangle;html=1;whiteSpace=wrap;connectable=0;strokeColor=inherit;overflow=hidden;fillColor=none;top=0;left=0;bottom=0;right=0;pointerEvents=1;fontSize=16;" vertex="1" parent="db_hWNf274ALsjG5QtfP-24">
          <mxGeometry width="50" height="40" as="geometry">
            <mxRectangle width="50" height="40" as="alternateBounds" />
          </mxGeometry>
        </mxCell>
        <mxCell id="db_hWNf274ALsjG5QtfP-26" value="NumberOfTimes" style="shape=partialRectangle;html=1;whiteSpace=wrap;connectable=0;strokeColor=inherit;overflow=hidden;fillColor=none;top=0;left=0;bottom=0;right=0;pointerEvents=1;fontSize=16;" vertex="1" parent="db_hWNf274ALsjG5QtfP-24">
          <mxGeometry x="50" width="160" height="40" as="geometry">
            <mxRectangle width="160" height="40" as="alternateBounds" />
          </mxGeometry>
        </mxCell>
        <mxCell id="db_hWNf274ALsjG5QtfP-27" value="int" style="shape=partialRectangle;html=1;whiteSpace=wrap;connectable=0;strokeColor=inherit;overflow=hidden;fillColor=none;top=0;left=0;bottom=0;right=0;pointerEvents=1;fontSize=16;" vertex="1" parent="db_hWNf274ALsjG5QtfP-24">
          <mxGeometry x="210" width="70" height="40" as="geometry">
            <mxRectangle width="70" height="40" as="alternateBounds" />
          </mxGeometry>
        </mxCell>
        <mxCell id="db_hWNf274ALsjG5QtfP-94" value="" style="shape=tableRow;horizontal=0;startSize=0;swimlaneHead=0;swimlaneBody=0;strokeColor=inherit;top=0;left=0;bottom=0;right=0;collapsible=0;dropTarget=0;fillColor=none;points=[[0,0.5],[1,0.5]];portConstraint=eastwest;fontSize=16;" vertex="1" parent="db_hWNf274ALsjG5QtfP-15">
          <mxGeometry y="150" width="280" height="40" as="geometry" />
        </mxCell>
        <mxCell id="db_hWNf274ALsjG5QtfP-95" value="" style="shape=partialRectangle;html=1;whiteSpace=wrap;connectable=0;strokeColor=inherit;overflow=hidden;fillColor=none;top=0;left=0;bottom=0;right=0;pointerEvents=1;fontSize=16;" vertex="1" parent="db_hWNf274ALsjG5QtfP-94">
          <mxGeometry width="50" height="40" as="geometry">
            <mxRectangle width="50" height="40" as="alternateBounds" />
          </mxGeometry>
        </mxCell>
        <mxCell id="db_hWNf274ALsjG5QtfP-96" value="KPI" style="shape=partialRectangle;html=1;whiteSpace=wrap;connectable=0;strokeColor=inherit;overflow=hidden;fillColor=none;top=0;left=0;bottom=0;right=0;pointerEvents=1;fontSize=16;" vertex="1" parent="db_hWNf274ALsjG5QtfP-94">
          <mxGeometry x="50" width="160" height="40" as="geometry">
            <mxRectangle width="160" height="40" as="alternateBounds" />
          </mxGeometry>
        </mxCell>
        <mxCell id="db_hWNf274ALsjG5QtfP-97" value="int" style="shape=partialRectangle;html=1;whiteSpace=wrap;connectable=0;strokeColor=inherit;overflow=hidden;fillColor=none;top=0;left=0;bottom=0;right=0;pointerEvents=1;fontSize=16;" vertex="1" parent="db_hWNf274ALsjG5QtfP-94">
          <mxGeometry x="210" width="70" height="40" as="geometry">
            <mxRectangle width="70" height="40" as="alternateBounds" />
          </mxGeometry>
        </mxCell>
        <mxCell id="db_hWNf274ALsjG5QtfP-98" value="Order" style="shape=table;startSize=30;container=1;collapsible=0;childLayout=tableLayout;strokeColor=default;fontSize=16;" vertex="1" parent="1">
          <mxGeometry x="730" y="80" width="420" height="510" as="geometry" />
        </mxCell>
        <mxCell id="db_hWNf274ALsjG5QtfP-99" value="" style="shape=tableRow;horizontal=0;startSize=0;swimlaneHead=0;swimlaneBody=0;strokeColor=inherit;top=0;left=0;bottom=0;right=0;collapsible=0;dropTarget=0;fillColor=none;points=[[0,0.5],[1,0.5]];portConstraint=eastwest;fontSize=16;" vertex="1" parent="db_hWNf274ALsjG5QtfP-98">
          <mxGeometry y="30" width="420" height="40" as="geometry" />
        </mxCell>
        <mxCell id="db_hWNf274ALsjG5QtfP-100" value="PK" style="shape=partialRectangle;html=1;whiteSpace=wrap;connectable=0;strokeColor=inherit;overflow=hidden;fillColor=none;top=0;left=0;bottom=0;right=0;pointerEvents=1;fontSize=16;" vertex="1" parent="db_hWNf274ALsjG5QtfP-99">
          <mxGeometry width="71" height="40" as="geometry">
            <mxRectangle width="71" height="40" as="alternateBounds" />
          </mxGeometry>
        </mxCell>
        <mxCell id="db_hWNf274ALsjG5QtfP-101" value="OrderID" style="shape=partialRectangle;html=1;whiteSpace=wrap;connectable=0;strokeColor=inherit;overflow=hidden;fillColor=none;top=0;left=0;bottom=0;right=0;pointerEvents=1;fontSize=16;" vertex="1" parent="db_hWNf274ALsjG5QtfP-99">
          <mxGeometry x="71" width="189" height="40" as="geometry">
            <mxRectangle width="189" height="40" as="alternateBounds" />
          </mxGeometry>
        </mxCell>
        <mxCell id="db_hWNf274ALsjG5QtfP-102" value="string?" style="shape=partialRectangle;html=1;whiteSpace=wrap;connectable=0;strokeColor=inherit;overflow=hidden;fillColor=none;top=0;left=0;bottom=0;right=0;pointerEvents=1;fontSize=16;" vertex="1" parent="db_hWNf274ALsjG5QtfP-99">
          <mxGeometry x="260" width="160" height="40" as="geometry">
            <mxRectangle width="160" height="40" as="alternateBounds" />
          </mxGeometry>
        </mxCell>
        <mxCell id="db_hWNf274ALsjG5QtfP-103" value="" style="shape=tableRow;horizontal=0;startSize=0;swimlaneHead=0;swimlaneBody=0;strokeColor=inherit;top=0;left=0;bottom=0;right=0;collapsible=0;dropTarget=0;fillColor=none;points=[[0,0.5],[1,0.5]];portConstraint=eastwest;fontSize=16;" vertex="1" parent="db_hWNf274ALsjG5QtfP-98">
          <mxGeometry y="70" width="420" height="40" as="geometry" />
        </mxCell>
        <mxCell id="db_hWNf274ALsjG5QtfP-104" value="FK" style="shape=partialRectangle;html=1;whiteSpace=wrap;connectable=0;strokeColor=inherit;overflow=hidden;fillColor=none;top=0;left=0;bottom=0;right=0;pointerEvents=1;fontSize=16;" vertex="1" parent="db_hWNf274ALsjG5QtfP-103">
          <mxGeometry width="71" height="40" as="geometry">
            <mxRectangle width="71" height="40" as="alternateBounds" />
          </mxGeometry>
        </mxCell>
        <mxCell id="db_hWNf274ALsjG5QtfP-105" value="DiscountCodeID" style="shape=partialRectangle;html=1;whiteSpace=wrap;connectable=0;strokeColor=inherit;overflow=hidden;fillColor=none;top=0;left=0;bottom=0;right=0;pointerEvents=1;fontSize=16;" vertex="1" parent="db_hWNf274ALsjG5QtfP-103">
          <mxGeometry x="71" width="189" height="40" as="geometry">
            <mxRectangle width="189" height="40" as="alternateBounds" />
          </mxGeometry>
        </mxCell>
        <mxCell id="db_hWNf274ALsjG5QtfP-106" value="string?" style="shape=partialRectangle;html=1;whiteSpace=wrap;connectable=0;strokeColor=inherit;overflow=hidden;fillColor=none;top=0;left=0;bottom=0;right=0;pointerEvents=1;fontSize=16;" vertex="1" parent="db_hWNf274ALsjG5QtfP-103">
          <mxGeometry x="260" width="160" height="40" as="geometry">
            <mxRectangle width="160" height="40" as="alternateBounds" />
          </mxGeometry>
        </mxCell>
        <mxCell id="db_hWNf274ALsjG5QtfP-107" value="" style="shape=tableRow;horizontal=0;startSize=0;swimlaneHead=0;swimlaneBody=0;strokeColor=inherit;top=0;left=0;bottom=0;right=0;collapsible=0;dropTarget=0;fillColor=none;points=[[0,0.5],[1,0.5]];portConstraint=eastwest;fontSize=16;" vertex="1" parent="db_hWNf274ALsjG5QtfP-98">
          <mxGeometry y="110" width="420" height="40" as="geometry" />
        </mxCell>
        <mxCell id="db_hWNf274ALsjG5QtfP-108" value="" style="shape=partialRectangle;html=1;whiteSpace=wrap;connectable=0;strokeColor=inherit;overflow=hidden;fillColor=none;top=0;left=0;bottom=0;right=0;pointerEvents=1;fontSize=16;" vertex="1" parent="db_hWNf274ALsjG5QtfP-107">
          <mxGeometry width="71" height="40" as="geometry">
            <mxRectangle width="71" height="40" as="alternateBounds" />
          </mxGeometry>
        </mxCell>
        <mxCell id="db_hWNf274ALsjG5QtfP-109" value="OrdererName" style="shape=partialRectangle;html=1;whiteSpace=wrap;connectable=0;strokeColor=inherit;overflow=hidden;fillColor=none;top=0;left=0;bottom=0;right=0;pointerEvents=1;fontSize=16;" vertex="1" parent="db_hWNf274ALsjG5QtfP-107">
          <mxGeometry x="71" width="189" height="40" as="geometry">
            <mxRectangle width="189" height="40" as="alternateBounds" />
          </mxGeometry>
        </mxCell>
        <mxCell id="db_hWNf274ALsjG5QtfP-110" value="string&lt;br&gt;" style="shape=partialRectangle;html=1;whiteSpace=wrap;connectable=0;strokeColor=inherit;overflow=hidden;fillColor=none;top=0;left=0;bottom=0;right=0;pointerEvents=1;fontSize=16;" vertex="1" parent="db_hWNf274ALsjG5QtfP-107">
          <mxGeometry x="260" width="160" height="40" as="geometry">
            <mxRectangle width="160" height="40" as="alternateBounds" />
          </mxGeometry>
        </mxCell>
        <mxCell id="db_hWNf274ALsjG5QtfP-111" value="" style="shape=tableRow;horizontal=0;startSize=0;swimlaneHead=0;swimlaneBody=0;strokeColor=inherit;top=0;left=0;bottom=0;right=0;collapsible=0;dropTarget=0;fillColor=none;points=[[0,0.5],[1,0.5]];portConstraint=eastwest;fontSize=16;" vertex="1" parent="db_hWNf274ALsjG5QtfP-98">
          <mxGeometry y="150" width="420" height="40" as="geometry" />
        </mxCell>
        <mxCell id="db_hWNf274ALsjG5QtfP-112" value="" style="shape=partialRectangle;html=1;whiteSpace=wrap;connectable=0;strokeColor=inherit;overflow=hidden;fillColor=none;top=0;left=0;bottom=0;right=0;pointerEvents=1;fontSize=16;" vertex="1" parent="db_hWNf274ALsjG5QtfP-111">
          <mxGeometry width="71" height="40" as="geometry">
            <mxRectangle width="71" height="40" as="alternateBounds" />
          </mxGeometry>
        </mxCell>
        <mxCell id="db_hWNf274ALsjG5QtfP-113" value="OrdererPhoneNumber" style="shape=partialRectangle;html=1;whiteSpace=wrap;connectable=0;strokeColor=inherit;overflow=hidden;fillColor=none;top=0;left=0;bottom=0;right=0;pointerEvents=1;fontSize=16;" vertex="1" parent="db_hWNf274ALsjG5QtfP-111">
          <mxGeometry x="71" width="189" height="40" as="geometry">
            <mxRectangle width="189" height="40" as="alternateBounds" />
          </mxGeometry>
        </mxCell>
        <mxCell id="db_hWNf274ALsjG5QtfP-114" value="string" style="shape=partialRectangle;html=1;whiteSpace=wrap;connectable=0;strokeColor=inherit;overflow=hidden;fillColor=none;top=0;left=0;bottom=0;right=0;pointerEvents=1;fontSize=16;" vertex="1" parent="db_hWNf274ALsjG5QtfP-111">
          <mxGeometry x="260" width="160" height="40" as="geometry">
            <mxRectangle width="160" height="40" as="alternateBounds" />
          </mxGeometry>
        </mxCell>
        <mxCell id="db_hWNf274ALsjG5QtfP-120" value="" style="shape=tableRow;horizontal=0;startSize=0;swimlaneHead=0;swimlaneBody=0;strokeColor=inherit;top=0;left=0;bottom=0;right=0;collapsible=0;dropTarget=0;fillColor=none;points=[[0,0.5],[1,0.5]];portConstraint=eastwest;fontSize=16;" vertex="1" parent="db_hWNf274ALsjG5QtfP-98">
          <mxGeometry y="190" width="420" height="40" as="geometry" />
        </mxCell>
        <mxCell id="db_hWNf274ALsjG5QtfP-121" value="" style="shape=partialRectangle;html=1;whiteSpace=wrap;connectable=0;strokeColor=inherit;overflow=hidden;fillColor=none;top=0;left=0;bottom=0;right=0;pointerEvents=1;fontSize=16;" vertex="1" parent="db_hWNf274ALsjG5QtfP-120">
          <mxGeometry width="71" height="40" as="geometry">
            <mxRectangle width="71" height="40" as="alternateBounds" />
          </mxGeometry>
        </mxCell>
        <mxCell id="db_hWNf274ALsjG5QtfP-122" value="OrdererEmail" style="shape=partialRectangle;html=1;whiteSpace=wrap;connectable=0;strokeColor=inherit;overflow=hidden;fillColor=none;top=0;left=0;bottom=0;right=0;pointerEvents=1;fontSize=16;" vertex="1" parent="db_hWNf274ALsjG5QtfP-120">
          <mxGeometry x="71" width="189" height="40" as="geometry">
            <mxRectangle width="189" height="40" as="alternateBounds" />
          </mxGeometry>
        </mxCell>
        <mxCell id="db_hWNf274ALsjG5QtfP-123" value="string" style="shape=partialRectangle;html=1;whiteSpace=wrap;connectable=0;strokeColor=inherit;overflow=hidden;fillColor=none;top=0;left=0;bottom=0;right=0;pointerEvents=1;fontSize=16;" vertex="1" parent="db_hWNf274ALsjG5QtfP-120">
          <mxGeometry x="260" width="160" height="40" as="geometry">
            <mxRectangle width="160" height="40" as="alternateBounds" />
          </mxGeometry>
        </mxCell>
        <mxCell id="db_hWNf274ALsjG5QtfP-124" value="" style="shape=tableRow;horizontal=0;startSize=0;swimlaneHead=0;swimlaneBody=0;strokeColor=inherit;top=0;left=0;bottom=0;right=0;collapsible=0;dropTarget=0;fillColor=none;points=[[0,0.5],[1,0.5]];portConstraint=eastwest;fontSize=16;" vertex="1" parent="db_hWNf274ALsjG5QtfP-98">
          <mxGeometry y="230" width="420" height="40" as="geometry" />
        </mxCell>
        <mxCell id="db_hWNf274ALsjG5QtfP-125" value="" style="shape=partialRectangle;html=1;whiteSpace=wrap;connectable=0;strokeColor=inherit;overflow=hidden;fillColor=none;top=0;left=0;bottom=0;right=0;pointerEvents=1;fontSize=16;" vertex="1" parent="db_hWNf274ALsjG5QtfP-124">
          <mxGeometry width="71" height="40" as="geometry">
            <mxRectangle width="71" height="40" as="alternateBounds" />
          </mxGeometry>
        </mxCell>
        <mxCell id="db_hWNf274ALsjG5QtfP-126" value="DeliveryAddress" style="shape=partialRectangle;html=1;whiteSpace=wrap;connectable=0;strokeColor=inherit;overflow=hidden;fillColor=none;top=0;left=0;bottom=0;right=0;pointerEvents=1;fontSize=16;" vertex="1" parent="db_hWNf274ALsjG5QtfP-124">
          <mxGeometry x="71" width="189" height="40" as="geometry">
            <mxRectangle width="189" height="40" as="alternateBounds" />
          </mxGeometry>
        </mxCell>
        <mxCell id="db_hWNf274ALsjG5QtfP-127" value="string" style="shape=partialRectangle;html=1;whiteSpace=wrap;connectable=0;strokeColor=inherit;overflow=hidden;fillColor=none;top=0;left=0;bottom=0;right=0;pointerEvents=1;fontSize=16;" vertex="1" parent="db_hWNf274ALsjG5QtfP-124">
          <mxGeometry x="260" width="160" height="40" as="geometry">
            <mxRectangle width="160" height="40" as="alternateBounds" />
          </mxGeometry>
        </mxCell>
        <mxCell id="db_hWNf274ALsjG5QtfP-128" value="" style="shape=tableRow;horizontal=0;startSize=0;swimlaneHead=0;swimlaneBody=0;strokeColor=inherit;top=0;left=0;bottom=0;right=0;collapsible=0;dropTarget=0;fillColor=none;points=[[0,0.5],[1,0.5]];portConstraint=eastwest;fontSize=16;" vertex="1" parent="db_hWNf274ALsjG5QtfP-98">
          <mxGeometry y="270" width="420" height="40" as="geometry" />
        </mxCell>
        <mxCell id="db_hWNf274ALsjG5QtfP-129" value="" style="shape=partialRectangle;html=1;whiteSpace=wrap;connectable=0;strokeColor=inherit;overflow=hidden;fillColor=none;top=0;left=0;bottom=0;right=0;pointerEvents=1;fontSize=16;" vertex="1" parent="db_hWNf274ALsjG5QtfP-128">
          <mxGeometry width="71" height="40" as="geometry">
            <mxRectangle width="71" height="40" as="alternateBounds" />
          </mxGeometry>
        </mxCell>
        <mxCell id="db_hWNf274ALsjG5QtfP-130" value="TotalPrice" style="shape=partialRectangle;html=1;whiteSpace=wrap;connectable=0;strokeColor=inherit;overflow=hidden;fillColor=none;top=0;left=0;bottom=0;right=0;pointerEvents=1;fontSize=16;" vertex="1" parent="db_hWNf274ALsjG5QtfP-128">
          <mxGeometry x="71" width="189" height="40" as="geometry">
            <mxRectangle width="189" height="40" as="alternateBounds" />
          </mxGeometry>
        </mxCell>
        <mxCell id="db_hWNf274ALsjG5QtfP-131" value="float?" style="shape=partialRectangle;html=1;whiteSpace=wrap;connectable=0;strokeColor=inherit;overflow=hidden;fillColor=none;top=0;left=0;bottom=0;right=0;pointerEvents=1;fontSize=16;" vertex="1" parent="db_hWNf274ALsjG5QtfP-128">
          <mxGeometry x="260" width="160" height="40" as="geometry">
            <mxRectangle width="160" height="40" as="alternateBounds" />
          </mxGeometry>
        </mxCell>
        <mxCell id="db_hWNf274ALsjG5QtfP-132" value="" style="shape=tableRow;horizontal=0;startSize=0;swimlaneHead=0;swimlaneBody=0;strokeColor=inherit;top=0;left=0;bottom=0;right=0;collapsible=0;dropTarget=0;fillColor=none;points=[[0,0.5],[1,0.5]];portConstraint=eastwest;fontSize=16;" vertex="1" parent="db_hWNf274ALsjG5QtfP-98">
          <mxGeometry y="310" width="420" height="40" as="geometry" />
        </mxCell>
        <mxCell id="db_hWNf274ALsjG5QtfP-133" value="" style="shape=partialRectangle;html=1;whiteSpace=wrap;connectable=0;strokeColor=inherit;overflow=hidden;fillColor=none;top=0;left=0;bottom=0;right=0;pointerEvents=1;fontSize=16;" vertex="1" parent="db_hWNf274ALsjG5QtfP-132">
          <mxGeometry width="71" height="40" as="geometry">
            <mxRectangle width="71" height="40" as="alternateBounds" />
          </mxGeometry>
        </mxCell>
        <mxCell id="db_hWNf274ALsjG5QtfP-134" value="CreateDate" style="shape=partialRectangle;html=1;whiteSpace=wrap;connectable=0;strokeColor=inherit;overflow=hidden;fillColor=none;top=0;left=0;bottom=0;right=0;pointerEvents=1;fontSize=16;" vertex="1" parent="db_hWNf274ALsjG5QtfP-132">
          <mxGeometry x="71" width="189" height="40" as="geometry">
            <mxRectangle width="189" height="40" as="alternateBounds" />
          </mxGeometry>
        </mxCell>
        <mxCell id="db_hWNf274ALsjG5QtfP-135" value="DateTime" style="shape=partialRectangle;html=1;whiteSpace=wrap;connectable=0;strokeColor=inherit;overflow=hidden;fillColor=none;top=0;left=0;bottom=0;right=0;pointerEvents=1;fontSize=16;" vertex="1" parent="db_hWNf274ALsjG5QtfP-132">
          <mxGeometry x="260" width="160" height="40" as="geometry">
            <mxRectangle width="160" height="40" as="alternateBounds" />
          </mxGeometry>
        </mxCell>
        <mxCell id="db_hWNf274ALsjG5QtfP-136" value="" style="shape=tableRow;horizontal=0;startSize=0;swimlaneHead=0;swimlaneBody=0;strokeColor=inherit;top=0;left=0;bottom=0;right=0;collapsible=0;dropTarget=0;fillColor=none;points=[[0,0.5],[1,0.5]];portConstraint=eastwest;fontSize=16;" vertex="1" parent="db_hWNf274ALsjG5QtfP-98">
          <mxGeometry y="350" width="420" height="40" as="geometry" />
        </mxCell>
        <mxCell id="db_hWNf274ALsjG5QtfP-137" value="" style="shape=partialRectangle;html=1;whiteSpace=wrap;connectable=0;strokeColor=inherit;overflow=hidden;fillColor=none;top=0;left=0;bottom=0;right=0;pointerEvents=1;fontSize=16;" vertex="1" parent="db_hWNf274ALsjG5QtfP-136">
          <mxGeometry width="71" height="40" as="geometry">
            <mxRectangle width="71" height="40" as="alternateBounds" />
          </mxGeometry>
        </mxCell>
        <mxCell id="db_hWNf274ALsjG5QtfP-138" value="Note" style="shape=partialRectangle;html=1;whiteSpace=wrap;connectable=0;strokeColor=inherit;overflow=hidden;fillColor=none;top=0;left=0;bottom=0;right=0;pointerEvents=1;fontSize=16;" vertex="1" parent="db_hWNf274ALsjG5QtfP-136">
          <mxGeometry x="71" width="189" height="40" as="geometry">
            <mxRectangle width="189" height="40" as="alternateBounds" />
          </mxGeometry>
        </mxCell>
        <mxCell id="db_hWNf274ALsjG5QtfP-139" value="string?" style="shape=partialRectangle;html=1;whiteSpace=wrap;connectable=0;strokeColor=inherit;overflow=hidden;fillColor=none;top=0;left=0;bottom=0;right=0;pointerEvents=1;fontSize=16;" vertex="1" parent="db_hWNf274ALsjG5QtfP-136">
          <mxGeometry x="260" width="160" height="40" as="geometry">
            <mxRectangle width="160" height="40" as="alternateBounds" />
          </mxGeometry>
        </mxCell>
        <mxCell id="db_hWNf274ALsjG5QtfP-140" value="" style="shape=tableRow;horizontal=0;startSize=0;swimlaneHead=0;swimlaneBody=0;strokeColor=inherit;top=0;left=0;bottom=0;right=0;collapsible=0;dropTarget=0;fillColor=none;points=[[0,0.5],[1,0.5]];portConstraint=eastwest;fontSize=16;" vertex="1" parent="db_hWNf274ALsjG5QtfP-98">
          <mxGeometry y="390" width="420" height="40" as="geometry" />
        </mxCell>
        <mxCell id="db_hWNf274ALsjG5QtfP-141" value="" style="shape=partialRectangle;html=1;whiteSpace=wrap;connectable=0;strokeColor=inherit;overflow=hidden;fillColor=none;top=0;left=0;bottom=0;right=0;pointerEvents=1;fontSize=16;" vertex="1" parent="db_hWNf274ALsjG5QtfP-140">
          <mxGeometry width="71" height="40" as="geometry">
            <mxRectangle width="71" height="40" as="alternateBounds" />
          </mxGeometry>
        </mxCell>
        <mxCell id="db_hWNf274ALsjG5QtfP-142" value="Status" style="shape=partialRectangle;html=1;whiteSpace=wrap;connectable=0;strokeColor=inherit;overflow=hidden;fillColor=none;top=0;left=0;bottom=0;right=0;pointerEvents=1;fontSize=16;" vertex="1" parent="db_hWNf274ALsjG5QtfP-140">
          <mxGeometry x="71" width="189" height="40" as="geometry">
            <mxRectangle width="189" height="40" as="alternateBounds" />
          </mxGeometry>
        </mxCell>
        <mxCell id="db_hWNf274ALsjG5QtfP-143" value="bool?" style="shape=partialRectangle;html=1;whiteSpace=wrap;connectable=0;strokeColor=inherit;overflow=hidden;fillColor=none;top=0;left=0;bottom=0;right=0;pointerEvents=1;fontSize=16;" vertex="1" parent="db_hWNf274ALsjG5QtfP-140">
          <mxGeometry x="260" width="160" height="40" as="geometry">
            <mxRectangle width="160" height="40" as="alternateBounds" />
          </mxGeometry>
        </mxCell>
        <mxCell id="db_hWNf274ALsjG5QtfP-144" value="" style="shape=tableRow;horizontal=0;startSize=0;swimlaneHead=0;swimlaneBody=0;strokeColor=inherit;top=0;left=0;bottom=0;right=0;collapsible=0;dropTarget=0;fillColor=none;points=[[0,0.5],[1,0.5]];portConstraint=eastwest;fontSize=16;" vertex="1" parent="db_hWNf274ALsjG5QtfP-98">
          <mxGeometry y="430" width="420" height="40" as="geometry" />
        </mxCell>
        <mxCell id="db_hWNf274ALsjG5QtfP-145" value="" style="shape=partialRectangle;html=1;whiteSpace=wrap;connectable=0;strokeColor=inherit;overflow=hidden;fillColor=none;top=0;left=0;bottom=0;right=0;pointerEvents=1;fontSize=16;" vertex="1" parent="db_hWNf274ALsjG5QtfP-144">
          <mxGeometry width="71" height="40" as="geometry">
            <mxRectangle width="71" height="40" as="alternateBounds" />
          </mxGeometry>
        </mxCell>
        <mxCell id="db_hWNf274ALsjG5QtfP-146" value="PaidStatus" style="shape=partialRectangle;html=1;whiteSpace=wrap;connectable=0;strokeColor=inherit;overflow=hidden;fillColor=none;top=0;left=0;bottom=0;right=0;pointerEvents=1;fontSize=16;" vertex="1" parent="db_hWNf274ALsjG5QtfP-144">
          <mxGeometry x="71" width="189" height="40" as="geometry">
            <mxRectangle width="189" height="40" as="alternateBounds" />
          </mxGeometry>
        </mxCell>
        <mxCell id="db_hWNf274ALsjG5QtfP-147" value="bool?" style="shape=partialRectangle;html=1;whiteSpace=wrap;connectable=0;strokeColor=inherit;overflow=hidden;fillColor=none;top=0;left=0;bottom=0;right=0;pointerEvents=1;fontSize=16;" vertex="1" parent="db_hWNf274ALsjG5QtfP-144">
          <mxGeometry x="260" width="160" height="40" as="geometry">
            <mxRectangle width="160" height="40" as="alternateBounds" />
          </mxGeometry>
        </mxCell>
        <mxCell id="db_hWNf274ALsjG5QtfP-148" value="" style="shape=tableRow;horizontal=0;startSize=0;swimlaneHead=0;swimlaneBody=0;strokeColor=inherit;top=0;left=0;bottom=0;right=0;collapsible=0;dropTarget=0;fillColor=none;points=[[0,0.5],[1,0.5]];portConstraint=eastwest;fontSize=16;" vertex="1" parent="db_hWNf274ALsjG5QtfP-98">
          <mxGeometry y="470" width="420" height="40" as="geometry" />
        </mxCell>
        <mxCell id="db_hWNf274ALsjG5QtfP-149" value="" style="shape=partialRectangle;html=1;whiteSpace=wrap;connectable=0;strokeColor=inherit;overflow=hidden;fillColor=none;top=0;left=0;bottom=0;right=0;pointerEvents=1;fontSize=16;" vertex="1" parent="db_hWNf274ALsjG5QtfP-148">
          <mxGeometry width="71" height="40" as="geometry">
            <mxRectangle width="71" height="40" as="alternateBounds" />
          </mxGeometry>
        </mxCell>
        <mxCell id="db_hWNf274ALsjG5QtfP-150" value="orderDetails" style="shape=partialRectangle;html=1;whiteSpace=wrap;connectable=0;strokeColor=inherit;overflow=hidden;fillColor=none;top=0;left=0;bottom=0;right=0;pointerEvents=1;fontSize=16;" vertex="1" parent="db_hWNf274ALsjG5QtfP-148">
          <mxGeometry x="71" width="189" height="40" as="geometry">
            <mxRectangle width="189" height="40" as="alternateBounds" />
          </mxGeometry>
        </mxCell>
        <mxCell id="db_hWNf274ALsjG5QtfP-151" value="List&amp;lt;OrderDetail&amp;gt;" style="shape=partialRectangle;html=1;whiteSpace=wrap;connectable=0;strokeColor=inherit;overflow=hidden;fillColor=none;top=0;left=0;bottom=0;right=0;pointerEvents=1;fontSize=16;" vertex="1" parent="db_hWNf274ALsjG5QtfP-148">
          <mxGeometry x="260" width="160" height="40" as="geometry">
            <mxRectangle width="160" height="40" as="alternateBounds" />
          </mxGeometry>
        </mxCell>
        <mxCell id="db_hWNf274ALsjG5QtfP-152" value="OrderDetail" style="shape=table;startSize=30;container=1;collapsible=0;childLayout=tableLayout;strokeColor=default;fontSize=16;" vertex="1" parent="1">
          <mxGeometry x="790" y="620" width="280" height="270" as="geometry" />
        </mxCell>
        <mxCell id="db_hWNf274ALsjG5QtfP-153" value="" style="shape=tableRow;horizontal=0;startSize=0;swimlaneHead=0;swimlaneBody=0;strokeColor=inherit;top=0;left=0;bottom=0;right=0;collapsible=0;dropTarget=0;fillColor=none;points=[[0,0.5],[1,0.5]];portConstraint=eastwest;fontSize=16;" vertex="1" parent="db_hWNf274ALsjG5QtfP-152">
          <mxGeometry y="30" width="280" height="40" as="geometry" />
        </mxCell>
        <mxCell id="db_hWNf274ALsjG5QtfP-154" value="PK" style="shape=partialRectangle;html=1;whiteSpace=wrap;connectable=0;strokeColor=inherit;overflow=hidden;fillColor=none;top=0;left=0;bottom=0;right=0;pointerEvents=1;fontSize=16;" vertex="1" parent="db_hWNf274ALsjG5QtfP-153">
          <mxGeometry width="50" height="40" as="geometry">
            <mxRectangle width="50" height="40" as="alternateBounds" />
          </mxGeometry>
        </mxCell>
        <mxCell id="db_hWNf274ALsjG5QtfP-155" value="OrderDetailID" style="shape=partialRectangle;html=1;whiteSpace=wrap;connectable=0;strokeColor=inherit;overflow=hidden;fillColor=none;top=0;left=0;bottom=0;right=0;pointerEvents=1;fontSize=16;" vertex="1" parent="db_hWNf274ALsjG5QtfP-153">
          <mxGeometry x="50" width="160" height="40" as="geometry">
            <mxRectangle width="160" height="40" as="alternateBounds" />
          </mxGeometry>
        </mxCell>
        <mxCell id="db_hWNf274ALsjG5QtfP-156" value="string?" style="shape=partialRectangle;html=1;whiteSpace=wrap;connectable=0;strokeColor=inherit;overflow=hidden;fillColor=none;top=0;left=0;bottom=0;right=0;pointerEvents=1;fontSize=16;" vertex="1" parent="db_hWNf274ALsjG5QtfP-153">
          <mxGeometry x="210" width="70" height="40" as="geometry">
            <mxRectangle width="70" height="40" as="alternateBounds" />
          </mxGeometry>
        </mxCell>
        <mxCell id="db_hWNf274ALsjG5QtfP-157" value="" style="shape=tableRow;horizontal=0;startSize=0;swimlaneHead=0;swimlaneBody=0;strokeColor=inherit;top=0;left=0;bottom=0;right=0;collapsible=0;dropTarget=0;fillColor=none;points=[[0,0.5],[1,0.5]];portConstraint=eastwest;fontSize=16;" vertex="1" parent="db_hWNf274ALsjG5QtfP-152">
          <mxGeometry y="70" width="280" height="40" as="geometry" />
        </mxCell>
        <mxCell id="db_hWNf274ALsjG5QtfP-158" value="FK" style="shape=partialRectangle;html=1;whiteSpace=wrap;connectable=0;strokeColor=inherit;overflow=hidden;fillColor=none;top=0;left=0;bottom=0;right=0;pointerEvents=1;fontSize=16;" vertex="1" parent="db_hWNf274ALsjG5QtfP-157">
          <mxGeometry width="50" height="40" as="geometry">
            <mxRectangle width="50" height="40" as="alternateBounds" />
          </mxGeometry>
        </mxCell>
        <mxCell id="db_hWNf274ALsjG5QtfP-159" value="OrderID" style="shape=partialRectangle;html=1;whiteSpace=wrap;connectable=0;strokeColor=inherit;overflow=hidden;fillColor=none;top=0;left=0;bottom=0;right=0;pointerEvents=1;fontSize=16;" vertex="1" parent="db_hWNf274ALsjG5QtfP-157">
          <mxGeometry x="50" width="160" height="40" as="geometry">
            <mxRectangle width="160" height="40" as="alternateBounds" />
          </mxGeometry>
        </mxCell>
        <mxCell id="db_hWNf274ALsjG5QtfP-160" value="string" style="shape=partialRectangle;html=1;whiteSpace=wrap;connectable=0;strokeColor=inherit;overflow=hidden;fillColor=none;top=0;left=0;bottom=0;right=0;pointerEvents=1;fontSize=16;" vertex="1" parent="db_hWNf274ALsjG5QtfP-157">
          <mxGeometry x="210" width="70" height="40" as="geometry">
            <mxRectangle width="70" height="40" as="alternateBounds" />
          </mxGeometry>
        </mxCell>
        <mxCell id="db_hWNf274ALsjG5QtfP-161" value="" style="shape=tableRow;horizontal=0;startSize=0;swimlaneHead=0;swimlaneBody=0;strokeColor=inherit;top=0;left=0;bottom=0;right=0;collapsible=0;dropTarget=0;fillColor=none;points=[[0,0.5],[1,0.5]];portConstraint=eastwest;fontSize=16;" vertex="1" parent="db_hWNf274ALsjG5QtfP-152">
          <mxGeometry y="110" width="280" height="40" as="geometry" />
        </mxCell>
        <mxCell id="db_hWNf274ALsjG5QtfP-162" value="FK" style="shape=partialRectangle;html=1;whiteSpace=wrap;connectable=0;strokeColor=inherit;overflow=hidden;fillColor=none;top=0;left=0;bottom=0;right=0;pointerEvents=1;fontSize=16;" vertex="1" parent="db_hWNf274ALsjG5QtfP-161">
          <mxGeometry width="50" height="40" as="geometry">
            <mxRectangle width="50" height="40" as="alternateBounds" />
          </mxGeometry>
        </mxCell>
        <mxCell id="db_hWNf274ALsjG5QtfP-163" value="ProductID" style="shape=partialRectangle;html=1;whiteSpace=wrap;connectable=0;strokeColor=inherit;overflow=hidden;fillColor=none;top=0;left=0;bottom=0;right=0;pointerEvents=1;fontSize=16;" vertex="1" parent="db_hWNf274ALsjG5QtfP-161">
          <mxGeometry x="50" width="160" height="40" as="geometry">
            <mxRectangle width="160" height="40" as="alternateBounds" />
          </mxGeometry>
        </mxCell>
        <mxCell id="db_hWNf274ALsjG5QtfP-164" value="string" style="shape=partialRectangle;html=1;whiteSpace=wrap;connectable=0;strokeColor=inherit;overflow=hidden;fillColor=none;top=0;left=0;bottom=0;right=0;pointerEvents=1;fontSize=16;" vertex="1" parent="db_hWNf274ALsjG5QtfP-161">
          <mxGeometry x="210" width="70" height="40" as="geometry">
            <mxRectangle width="70" height="40" as="alternateBounds" />
          </mxGeometry>
        </mxCell>
        <mxCell id="db_hWNf274ALsjG5QtfP-165" value="" style="shape=tableRow;horizontal=0;startSize=0;swimlaneHead=0;swimlaneBody=0;strokeColor=inherit;top=0;left=0;bottom=0;right=0;collapsible=0;dropTarget=0;fillColor=none;points=[[0,0.5],[1,0.5]];portConstraint=eastwest;fontSize=16;" vertex="1" parent="db_hWNf274ALsjG5QtfP-152">
          <mxGeometry y="150" width="280" height="40" as="geometry" />
        </mxCell>
        <mxCell id="db_hWNf274ALsjG5QtfP-166" value="" style="shape=partialRectangle;html=1;whiteSpace=wrap;connectable=0;strokeColor=inherit;overflow=hidden;fillColor=none;top=0;left=0;bottom=0;right=0;pointerEvents=1;fontSize=16;" vertex="1" parent="db_hWNf274ALsjG5QtfP-165">
          <mxGeometry width="50" height="40" as="geometry">
            <mxRectangle width="50" height="40" as="alternateBounds" />
          </mxGeometry>
        </mxCell>
        <mxCell id="db_hWNf274ALsjG5QtfP-167" value="Amount" style="shape=partialRectangle;html=1;whiteSpace=wrap;connectable=0;strokeColor=inherit;overflow=hidden;fillColor=none;top=0;left=0;bottom=0;right=0;pointerEvents=1;fontSize=16;" vertex="1" parent="db_hWNf274ALsjG5QtfP-165">
          <mxGeometry x="50" width="160" height="40" as="geometry">
            <mxRectangle width="160" height="40" as="alternateBounds" />
          </mxGeometry>
        </mxCell>
        <mxCell id="db_hWNf274ALsjG5QtfP-168" value="int" style="shape=partialRectangle;html=1;whiteSpace=wrap;connectable=0;strokeColor=inherit;overflow=hidden;fillColor=none;top=0;left=0;bottom=0;right=0;pointerEvents=1;fontSize=16;" vertex="1" parent="db_hWNf274ALsjG5QtfP-165">
          <mxGeometry x="210" width="70" height="40" as="geometry">
            <mxRectangle width="70" height="40" as="alternateBounds" />
          </mxGeometry>
        </mxCell>
        <mxCell id="db_hWNf274ALsjG5QtfP-169" value="" style="shape=tableRow;horizontal=0;startSize=0;swimlaneHead=0;swimlaneBody=0;strokeColor=inherit;top=0;left=0;bottom=0;right=0;collapsible=0;dropTarget=0;fillColor=none;points=[[0,0.5],[1,0.5]];portConstraint=eastwest;fontSize=16;" vertex="1" parent="db_hWNf274ALsjG5QtfP-152">
          <mxGeometry y="190" width="280" height="40" as="geometry" />
        </mxCell>
        <mxCell id="db_hWNf274ALsjG5QtfP-170" value="" style="shape=partialRectangle;html=1;whiteSpace=wrap;connectable=0;strokeColor=inherit;overflow=hidden;fillColor=none;top=0;left=0;bottom=0;right=0;pointerEvents=1;fontSize=16;" vertex="1" parent="db_hWNf274ALsjG5QtfP-169">
          <mxGeometry width="50" height="40" as="geometry">
            <mxRectangle width="50" height="40" as="alternateBounds" />
          </mxGeometry>
        </mxCell>
        <mxCell id="db_hWNf274ALsjG5QtfP-171" value="Note" style="shape=partialRectangle;html=1;whiteSpace=wrap;connectable=0;strokeColor=inherit;overflow=hidden;fillColor=none;top=0;left=0;bottom=0;right=0;pointerEvents=1;fontSize=16;" vertex="1" parent="db_hWNf274ALsjG5QtfP-169">
          <mxGeometry x="50" width="160" height="40" as="geometry">
            <mxRectangle width="160" height="40" as="alternateBounds" />
          </mxGeometry>
        </mxCell>
        <mxCell id="db_hWNf274ALsjG5QtfP-172" value="string?" style="shape=partialRectangle;html=1;whiteSpace=wrap;connectable=0;strokeColor=inherit;overflow=hidden;fillColor=none;top=0;left=0;bottom=0;right=0;pointerEvents=1;fontSize=16;" vertex="1" parent="db_hWNf274ALsjG5QtfP-169">
          <mxGeometry x="210" width="70" height="40" as="geometry">
            <mxRectangle width="70" height="40" as="alternateBounds" />
          </mxGeometry>
        </mxCell>
        <mxCell id="db_hWNf274ALsjG5QtfP-173" value="" style="shape=tableRow;horizontal=0;startSize=0;swimlaneHead=0;swimlaneBody=0;strokeColor=inherit;top=0;left=0;bottom=0;right=0;collapsible=0;dropTarget=0;fillColor=none;points=[[0,0.5],[1,0.5]];portConstraint=eastwest;fontSize=16;" vertex="1" parent="db_hWNf274ALsjG5QtfP-152">
          <mxGeometry y="230" width="280" height="40" as="geometry" />
        </mxCell>
        <mxCell id="db_hWNf274ALsjG5QtfP-174" value="" style="shape=partialRectangle;html=1;whiteSpace=wrap;connectable=0;strokeColor=inherit;overflow=hidden;fillColor=none;top=0;left=0;bottom=0;right=0;pointerEvents=1;fontSize=16;" vertex="1" parent="db_hWNf274ALsjG5QtfP-173">
          <mxGeometry width="50" height="40" as="geometry">
            <mxRectangle width="50" height="40" as="alternateBounds" />
          </mxGeometry>
        </mxCell>
        <mxCell id="db_hWNf274ALsjG5QtfP-175" value="CreateDate" style="shape=partialRectangle;html=1;whiteSpace=wrap;connectable=0;strokeColor=inherit;overflow=hidden;fillColor=none;top=0;left=0;bottom=0;right=0;pointerEvents=1;fontSize=16;" vertex="1" parent="db_hWNf274ALsjG5QtfP-173">
          <mxGeometry x="50" width="160" height="40" as="geometry">
            <mxRectangle width="160" height="40" as="alternateBounds" />
          </mxGeometry>
        </mxCell>
        <mxCell id="db_hWNf274ALsjG5QtfP-176" value="DateTime?" style="shape=partialRectangle;html=1;whiteSpace=wrap;connectable=0;strokeColor=inherit;overflow=hidden;fillColor=none;top=0;left=0;bottom=0;right=0;pointerEvents=1;fontSize=16;" vertex="1" parent="db_hWNf274ALsjG5QtfP-173">
          <mxGeometry x="210" width="70" height="40" as="geometry">
            <mxRectangle width="70" height="40" as="alternateBounds" />
          </mxGeometry>
        </mxCell>
        <mxCell id="db_hWNf274ALsjG5QtfP-177" value="" style="endArrow=classic;html=1;rounded=0;exitX=1;exitY=0.5;exitDx=0;exitDy=0;entryX=1;entryY=0.5;entryDx=0;entryDy=0;" edge="1" parent="1" source="db_hWNf274ALsjG5QtfP-99" target="db_hWNf274ALsjG5QtfP-157">
          <mxGeometry width="50" height="50" relative="1" as="geometry">
            <mxPoint x="660" y="410" as="sourcePoint" />
            <mxPoint x="740" y="670" as="targetPoint" />
            <Array as="points">
              <mxPoint x="1220" y="130" />
              <mxPoint x="1220" y="710" />
            </Array>
          </mxGeometry>
        </mxCell>
        <mxCell id="db_hWNf274ALsjG5QtfP-178" value="Product" style="shape=table;startSize=30;container=1;collapsible=0;childLayout=tableLayout;strokeColor=default;fontSize=16;" vertex="1" parent="1">
          <mxGeometry x="280" y="620" width="330" height="390" as="geometry" />
        </mxCell>
        <mxCell id="db_hWNf274ALsjG5QtfP-179" value="" style="shape=tableRow;horizontal=0;startSize=0;swimlaneHead=0;swimlaneBody=0;strokeColor=inherit;top=0;left=0;bottom=0;right=0;collapsible=0;dropTarget=0;fillColor=none;points=[[0,0.5],[1,0.5]];portConstraint=eastwest;fontSize=16;" vertex="1" parent="db_hWNf274ALsjG5QtfP-178">
          <mxGeometry y="30" width="330" height="40" as="geometry" />
        </mxCell>
        <mxCell id="db_hWNf274ALsjG5QtfP-180" value="PK" style="shape=partialRectangle;html=1;whiteSpace=wrap;connectable=0;strokeColor=inherit;overflow=hidden;fillColor=none;top=0;left=0;bottom=0;right=0;pointerEvents=1;fontSize=16;" vertex="1" parent="db_hWNf274ALsjG5QtfP-179">
          <mxGeometry width="59" height="40" as="geometry">
            <mxRectangle width="59" height="40" as="alternateBounds" />
          </mxGeometry>
        </mxCell>
        <mxCell id="db_hWNf274ALsjG5QtfP-181" value="ProductID" style="shape=partialRectangle;html=1;whiteSpace=wrap;connectable=0;strokeColor=inherit;overflow=hidden;fillColor=none;top=0;left=0;bottom=0;right=0;pointerEvents=1;fontSize=16;" vertex="1" parent="db_hWNf274ALsjG5QtfP-179">
          <mxGeometry x="59" width="201" height="40" as="geometry">
            <mxRectangle width="201" height="40" as="alternateBounds" />
          </mxGeometry>
        </mxCell>
        <mxCell id="db_hWNf274ALsjG5QtfP-182" value="string?" style="shape=partialRectangle;html=1;whiteSpace=wrap;connectable=0;strokeColor=inherit;overflow=hidden;fillColor=none;top=0;left=0;bottom=0;right=0;pointerEvents=1;fontSize=16;" vertex="1" parent="db_hWNf274ALsjG5QtfP-179">
          <mxGeometry x="260" width="70" height="40" as="geometry">
            <mxRectangle width="70" height="40" as="alternateBounds" />
          </mxGeometry>
        </mxCell>
        <mxCell id="db_hWNf274ALsjG5QtfP-183" value="" style="shape=tableRow;horizontal=0;startSize=0;swimlaneHead=0;swimlaneBody=0;strokeColor=inherit;top=0;left=0;bottom=0;right=0;collapsible=0;dropTarget=0;fillColor=none;points=[[0,0.5],[1,0.5]];portConstraint=eastwest;fontSize=16;" vertex="1" parent="db_hWNf274ALsjG5QtfP-178">
          <mxGeometry y="70" width="330" height="40" as="geometry" />
        </mxCell>
        <mxCell id="db_hWNf274ALsjG5QtfP-184" value="" style="shape=partialRectangle;html=1;whiteSpace=wrap;connectable=0;strokeColor=inherit;overflow=hidden;fillColor=none;top=0;left=0;bottom=0;right=0;pointerEvents=1;fontSize=16;" vertex="1" parent="db_hWNf274ALsjG5QtfP-183">
          <mxGeometry width="59" height="40" as="geometry">
            <mxRectangle width="59" height="40" as="alternateBounds" />
          </mxGeometry>
        </mxCell>
        <mxCell id="db_hWNf274ALsjG5QtfP-185" value="ProductName" style="shape=partialRectangle;html=1;whiteSpace=wrap;connectable=0;strokeColor=inherit;overflow=hidden;fillColor=none;top=0;left=0;bottom=0;right=0;pointerEvents=1;fontSize=16;" vertex="1" parent="db_hWNf274ALsjG5QtfP-183">
          <mxGeometry x="59" width="201" height="40" as="geometry">
            <mxRectangle width="201" height="40" as="alternateBounds" />
          </mxGeometry>
        </mxCell>
        <mxCell id="db_hWNf274ALsjG5QtfP-186" value="string" style="shape=partialRectangle;html=1;whiteSpace=wrap;connectable=0;strokeColor=inherit;overflow=hidden;fillColor=none;top=0;left=0;bottom=0;right=0;pointerEvents=1;fontSize=16;" vertex="1" parent="db_hWNf274ALsjG5QtfP-183">
          <mxGeometry x="260" width="70" height="40" as="geometry">
            <mxRectangle width="70" height="40" as="alternateBounds" />
          </mxGeometry>
        </mxCell>
        <mxCell id="db_hWNf274ALsjG5QtfP-187" value="" style="shape=tableRow;horizontal=0;startSize=0;swimlaneHead=0;swimlaneBody=0;strokeColor=inherit;top=0;left=0;bottom=0;right=0;collapsible=0;dropTarget=0;fillColor=none;points=[[0,0.5],[1,0.5]];portConstraint=eastwest;fontSize=16;" vertex="1" parent="db_hWNf274ALsjG5QtfP-178">
          <mxGeometry y="110" width="330" height="40" as="geometry" />
        </mxCell>
        <mxCell id="db_hWNf274ALsjG5QtfP-188" value="" style="shape=partialRectangle;html=1;whiteSpace=wrap;connectable=0;strokeColor=inherit;overflow=hidden;fillColor=none;top=0;left=0;bottom=0;right=0;pointerEvents=1;fontSize=16;" vertex="1" parent="db_hWNf274ALsjG5QtfP-187">
          <mxGeometry width="59" height="40" as="geometry">
            <mxRectangle width="59" height="40" as="alternateBounds" />
          </mxGeometry>
        </mxCell>
        <mxCell id="db_hWNf274ALsjG5QtfP-189" value="ProductDescription" style="shape=partialRectangle;html=1;whiteSpace=wrap;connectable=0;strokeColor=inherit;overflow=hidden;fillColor=none;top=0;left=0;bottom=0;right=0;pointerEvents=1;fontSize=16;" vertex="1" parent="db_hWNf274ALsjG5QtfP-187">
          <mxGeometry x="59" width="201" height="40" as="geometry">
            <mxRectangle width="201" height="40" as="alternateBounds" />
          </mxGeometry>
        </mxCell>
        <mxCell id="db_hWNf274ALsjG5QtfP-190" value="string?" style="shape=partialRectangle;html=1;whiteSpace=wrap;connectable=0;strokeColor=inherit;overflow=hidden;fillColor=none;top=0;left=0;bottom=0;right=0;pointerEvents=1;fontSize=16;" vertex="1" parent="db_hWNf274ALsjG5QtfP-187">
          <mxGeometry x="260" width="70" height="40" as="geometry">
            <mxRectangle width="70" height="40" as="alternateBounds" />
          </mxGeometry>
        </mxCell>
        <mxCell id="db_hWNf274ALsjG5QtfP-191" value="" style="shape=tableRow;horizontal=0;startSize=0;swimlaneHead=0;swimlaneBody=0;strokeColor=inherit;top=0;left=0;bottom=0;right=0;collapsible=0;dropTarget=0;fillColor=none;points=[[0,0.5],[1,0.5]];portConstraint=eastwest;fontSize=16;" vertex="1" parent="db_hWNf274ALsjG5QtfP-178">
          <mxGeometry y="150" width="330" height="40" as="geometry" />
        </mxCell>
        <mxCell id="db_hWNf274ALsjG5QtfP-192" value="" style="shape=partialRectangle;html=1;whiteSpace=wrap;connectable=0;strokeColor=inherit;overflow=hidden;fillColor=none;top=0;left=0;bottom=0;right=0;pointerEvents=1;fontSize=16;" vertex="1" parent="db_hWNf274ALsjG5QtfP-191">
          <mxGeometry width="59" height="40" as="geometry">
            <mxRectangle width="59" height="40" as="alternateBounds" />
          </mxGeometry>
        </mxCell>
        <mxCell id="db_hWNf274ALsjG5QtfP-193" value="ProductLink" style="shape=partialRectangle;html=1;whiteSpace=wrap;connectable=0;strokeColor=inherit;overflow=hidden;fillColor=none;top=0;left=0;bottom=0;right=0;pointerEvents=1;fontSize=16;" vertex="1" parent="db_hWNf274ALsjG5QtfP-191">
          <mxGeometry x="59" width="201" height="40" as="geometry">
            <mxRectangle width="201" height="40" as="alternateBounds" />
          </mxGeometry>
        </mxCell>
        <mxCell id="db_hWNf274ALsjG5QtfP-194" value="string" style="shape=partialRectangle;html=1;whiteSpace=wrap;connectable=0;strokeColor=inherit;overflow=hidden;fillColor=none;top=0;left=0;bottom=0;right=0;pointerEvents=1;fontSize=16;" vertex="1" parent="db_hWNf274ALsjG5QtfP-191">
          <mxGeometry x="260" width="70" height="40" as="geometry">
            <mxRectangle width="70" height="40" as="alternateBounds" />
          </mxGeometry>
        </mxCell>
        <mxCell id="db_hWNf274ALsjG5QtfP-195" value="" style="shape=tableRow;horizontal=0;startSize=0;swimlaneHead=0;swimlaneBody=0;strokeColor=inherit;top=0;left=0;bottom=0;right=0;collapsible=0;dropTarget=0;fillColor=none;points=[[0,0.5],[1,0.5]];portConstraint=eastwest;fontSize=16;" vertex="1" parent="db_hWNf274ALsjG5QtfP-178">
          <mxGeometry y="190" width="330" height="40" as="geometry" />
        </mxCell>
        <mxCell id="db_hWNf274ALsjG5QtfP-196" value="" style="shape=partialRectangle;html=1;whiteSpace=wrap;connectable=0;strokeColor=inherit;overflow=hidden;fillColor=none;top=0;left=0;bottom=0;right=0;pointerEvents=1;fontSize=16;" vertex="1" parent="db_hWNf274ALsjG5QtfP-195">
          <mxGeometry width="59" height="40" as="geometry">
            <mxRectangle width="59" height="40" as="alternateBounds" />
          </mxGeometry>
        </mxCell>
        <mxCell id="db_hWNf274ALsjG5QtfP-197" value="Price" style="shape=partialRectangle;html=1;whiteSpace=wrap;connectable=0;strokeColor=inherit;overflow=hidden;fillColor=none;top=0;left=0;bottom=0;right=0;pointerEvents=1;fontSize=16;" vertex="1" parent="db_hWNf274ALsjG5QtfP-195">
          <mxGeometry x="59" width="201" height="40" as="geometry">
            <mxRectangle width="201" height="40" as="alternateBounds" />
          </mxGeometry>
        </mxCell>
        <mxCell id="db_hWNf274ALsjG5QtfP-198" value="float" style="shape=partialRectangle;html=1;whiteSpace=wrap;connectable=0;strokeColor=inherit;overflow=hidden;fillColor=none;top=0;left=0;bottom=0;right=0;pointerEvents=1;fontSize=16;" vertex="1" parent="db_hWNf274ALsjG5QtfP-195">
          <mxGeometry x="260" width="70" height="40" as="geometry">
            <mxRectangle width="70" height="40" as="alternateBounds" />
          </mxGeometry>
        </mxCell>
        <mxCell id="db_hWNf274ALsjG5QtfP-199" value="" style="shape=tableRow;horizontal=0;startSize=0;swimlaneHead=0;swimlaneBody=0;strokeColor=inherit;top=0;left=0;bottom=0;right=0;collapsible=0;dropTarget=0;fillColor=none;points=[[0,0.5],[1,0.5]];portConstraint=eastwest;fontSize=16;" vertex="1" parent="db_hWNf274ALsjG5QtfP-178">
          <mxGeometry y="230" width="330" height="40" as="geometry" />
        </mxCell>
        <mxCell id="db_hWNf274ALsjG5QtfP-200" value="" style="shape=partialRectangle;html=1;whiteSpace=wrap;connectable=0;strokeColor=inherit;overflow=hidden;fillColor=none;top=0;left=0;bottom=0;right=0;pointerEvents=1;fontSize=16;" vertex="1" parent="db_hWNf274ALsjG5QtfP-199">
          <mxGeometry width="59" height="40" as="geometry">
            <mxRectangle width="59" height="40" as="alternateBounds" />
          </mxGeometry>
        </mxCell>
        <mxCell id="db_hWNf274ALsjG5QtfP-201" value="Quantity" style="shape=partialRectangle;html=1;whiteSpace=wrap;connectable=0;strokeColor=inherit;overflow=hidden;fillColor=none;top=0;left=0;bottom=0;right=0;pointerEvents=1;fontSize=16;" vertex="1" parent="db_hWNf274ALsjG5QtfP-199">
          <mxGeometry x="59" width="201" height="40" as="geometry">
            <mxRectangle width="201" height="40" as="alternateBounds" />
          </mxGeometry>
        </mxCell>
        <mxCell id="db_hWNf274ALsjG5QtfP-202" value="int" style="shape=partialRectangle;html=1;whiteSpace=wrap;connectable=0;strokeColor=inherit;overflow=hidden;fillColor=none;top=0;left=0;bottom=0;right=0;pointerEvents=1;fontSize=16;" vertex="1" parent="db_hWNf274ALsjG5QtfP-199">
          <mxGeometry x="260" width="70" height="40" as="geometry">
            <mxRectangle width="70" height="40" as="alternateBounds" />
          </mxGeometry>
        </mxCell>
        <mxCell id="db_hWNf274ALsjG5QtfP-203" value="" style="shape=tableRow;horizontal=0;startSize=0;swimlaneHead=0;swimlaneBody=0;strokeColor=inherit;top=0;left=0;bottom=0;right=0;collapsible=0;dropTarget=0;fillColor=none;points=[[0,0.5],[1,0.5]];portConstraint=eastwest;fontSize=16;" vertex="1" parent="db_hWNf274ALsjG5QtfP-178">
          <mxGeometry y="270" width="330" height="40" as="geometry" />
        </mxCell>
        <mxCell id="db_hWNf274ALsjG5QtfP-204" value="" style="shape=partialRectangle;html=1;whiteSpace=wrap;connectable=0;strokeColor=inherit;overflow=hidden;fillColor=none;top=0;left=0;bottom=0;right=0;pointerEvents=1;fontSize=16;" vertex="1" parent="db_hWNf274ALsjG5QtfP-203">
          <mxGeometry width="59" height="40" as="geometry">
            <mxRectangle width="59" height="40" as="alternateBounds" />
          </mxGeometry>
        </mxCell>
        <mxCell id="db_hWNf274ALsjG5QtfP-205" value="CurrentQuantity" style="shape=partialRectangle;html=1;whiteSpace=wrap;connectable=0;strokeColor=inherit;overflow=hidden;fillColor=none;top=0;left=0;bottom=0;right=0;pointerEvents=1;fontSize=16;" vertex="1" parent="db_hWNf274ALsjG5QtfP-203">
          <mxGeometry x="59" width="201" height="40" as="geometry">
            <mxRectangle width="201" height="40" as="alternateBounds" />
          </mxGeometry>
        </mxCell>
        <mxCell id="db_hWNf274ALsjG5QtfP-206" value="int?" style="shape=partialRectangle;html=1;whiteSpace=wrap;connectable=0;strokeColor=inherit;overflow=hidden;fillColor=none;top=0;left=0;bottom=0;right=0;pointerEvents=1;fontSize=16;" vertex="1" parent="db_hWNf274ALsjG5QtfP-203">
          <mxGeometry x="260" width="70" height="40" as="geometry">
            <mxRectangle width="70" height="40" as="alternateBounds" />
          </mxGeometry>
        </mxCell>
        <mxCell id="db_hWNf274ALsjG5QtfP-207" value="" style="shape=tableRow;horizontal=0;startSize=0;swimlaneHead=0;swimlaneBody=0;strokeColor=inherit;top=0;left=0;bottom=0;right=0;collapsible=0;dropTarget=0;fillColor=none;points=[[0,0.5],[1,0.5]];portConstraint=eastwest;fontSize=16;" vertex="1" parent="db_hWNf274ALsjG5QtfP-178">
          <mxGeometry y="310" width="330" height="40" as="geometry" />
        </mxCell>
        <mxCell id="db_hWNf274ALsjG5QtfP-208" value="" style="shape=partialRectangle;html=1;whiteSpace=wrap;connectable=0;strokeColor=inherit;overflow=hidden;fillColor=none;top=0;left=0;bottom=0;right=0;pointerEvents=1;fontSize=16;" vertex="1" parent="db_hWNf274ALsjG5QtfP-207">
          <mxGeometry width="59" height="40" as="geometry">
            <mxRectangle width="59" height="40" as="alternateBounds" />
          </mxGeometry>
        </mxCell>
        <mxCell id="db_hWNf274ALsjG5QtfP-209" value="IsActive" style="shape=partialRectangle;html=1;whiteSpace=wrap;connectable=0;strokeColor=inherit;overflow=hidden;fillColor=none;top=0;left=0;bottom=0;right=0;pointerEvents=1;fontSize=16;" vertex="1" parent="db_hWNf274ALsjG5QtfP-207">
          <mxGeometry x="59" width="201" height="40" as="geometry">
            <mxRectangle width="201" height="40" as="alternateBounds" />
          </mxGeometry>
        </mxCell>
        <mxCell id="db_hWNf274ALsjG5QtfP-210" value="bool?" style="shape=partialRectangle;html=1;whiteSpace=wrap;connectable=0;strokeColor=inherit;overflow=hidden;fillColor=none;top=0;left=0;bottom=0;right=0;pointerEvents=1;fontSize=16;" vertex="1" parent="db_hWNf274ALsjG5QtfP-207">
          <mxGeometry x="260" width="70" height="40" as="geometry">
            <mxRectangle width="70" height="40" as="alternateBounds" />
          </mxGeometry>
        </mxCell>
        <mxCell id="db_hWNf274ALsjG5QtfP-211" value="" style="shape=tableRow;horizontal=0;startSize=0;swimlaneHead=0;swimlaneBody=0;strokeColor=inherit;top=0;left=0;bottom=0;right=0;collapsible=0;dropTarget=0;fillColor=none;points=[[0,0.5],[1,0.5]];portConstraint=eastwest;fontSize=16;" vertex="1" parent="db_hWNf274ALsjG5QtfP-178">
          <mxGeometry y="350" width="330" height="40" as="geometry" />
        </mxCell>
        <mxCell id="db_hWNf274ALsjG5QtfP-212" value="" style="shape=partialRectangle;html=1;whiteSpace=wrap;connectable=0;strokeColor=inherit;overflow=hidden;fillColor=none;top=0;left=0;bottom=0;right=0;pointerEvents=1;fontSize=16;" vertex="1" parent="db_hWNf274ALsjG5QtfP-211">
          <mxGeometry width="59" height="40" as="geometry">
            <mxRectangle width="59" height="40" as="alternateBounds" />
          </mxGeometry>
        </mxCell>
        <mxCell id="db_hWNf274ALsjG5QtfP-213" value="Note" style="shape=partialRectangle;html=1;whiteSpace=wrap;connectable=0;strokeColor=inherit;overflow=hidden;fillColor=none;top=0;left=0;bottom=0;right=0;pointerEvents=1;fontSize=16;" vertex="1" parent="db_hWNf274ALsjG5QtfP-211">
          <mxGeometry x="59" width="201" height="40" as="geometry">
            <mxRectangle width="201" height="40" as="alternateBounds" />
          </mxGeometry>
        </mxCell>
        <mxCell id="db_hWNf274ALsjG5QtfP-214" value="string?" style="shape=partialRectangle;html=1;whiteSpace=wrap;connectable=0;strokeColor=inherit;overflow=hidden;fillColor=none;top=0;left=0;bottom=0;right=0;pointerEvents=1;fontSize=16;" vertex="1" parent="db_hWNf274ALsjG5QtfP-211">
          <mxGeometry x="260" width="70" height="40" as="geometry">
            <mxRectangle width="70" height="40" as="alternateBounds" />
          </mxGeometry>
        </mxCell>
        <mxCell id="db_hWNf274ALsjG5QtfP-215" value="" style="endArrow=classic;html=1;rounded=0;exitX=1;exitY=0.5;exitDx=0;exitDy=0;entryX=0;entryY=0.5;entryDx=0;entryDy=0;" edge="1" parent="1" source="db_hWNf274ALsjG5QtfP-179" target="db_hWNf274ALsjG5QtfP-161">
          <mxGeometry width="50" height="50" relative="1" as="geometry">
            <mxPoint x="630" y="660" as="sourcePoint" />
            <mxPoint x="680" y="480" as="targetPoint" />
            <Array as="points">
              <mxPoint x="700" y="670" />
              <mxPoint x="700" y="750" />
            </Array>
          </mxGeometry>
        </mxCell>
        <mxCell id="db_hWNf274ALsjG5QtfP-216" value="User" style="shape=table;startSize=30;container=1;collapsible=0;childLayout=tableLayout;strokeColor=default;fontSize=16;" vertex="1" parent="1">
          <mxGeometry x="270" y="-340" width="280" height="310" as="geometry" />
        </mxCell>
        <mxCell id="db_hWNf274ALsjG5QtfP-217" value="" style="shape=tableRow;horizontal=0;startSize=0;swimlaneHead=0;swimlaneBody=0;strokeColor=inherit;top=0;left=0;bottom=0;right=0;collapsible=0;dropTarget=0;fillColor=none;points=[[0,0.5],[1,0.5]];portConstraint=eastwest;fontSize=16;" vertex="1" parent="db_hWNf274ALsjG5QtfP-216">
          <mxGeometry y="30" width="280" height="40" as="geometry" />
        </mxCell>
        <mxCell id="db_hWNf274ALsjG5QtfP-218" value="PK" style="shape=partialRectangle;html=1;whiteSpace=wrap;connectable=0;strokeColor=inherit;overflow=hidden;fillColor=none;top=0;left=0;bottom=0;right=0;pointerEvents=1;fontSize=16;" vertex="1" parent="db_hWNf274ALsjG5QtfP-217">
          <mxGeometry width="50" height="40" as="geometry">
            <mxRectangle width="50" height="40" as="alternateBounds" />
          </mxGeometry>
        </mxCell>
        <mxCell id="db_hWNf274ALsjG5QtfP-219" value="UserID" style="shape=partialRectangle;html=1;whiteSpace=wrap;connectable=0;strokeColor=inherit;overflow=hidden;fillColor=none;top=0;left=0;bottom=0;right=0;pointerEvents=1;fontSize=16;" vertex="1" parent="db_hWNf274ALsjG5QtfP-217">
          <mxGeometry x="50" width="160" height="40" as="geometry">
            <mxRectangle width="160" height="40" as="alternateBounds" />
          </mxGeometry>
        </mxCell>
        <mxCell id="db_hWNf274ALsjG5QtfP-220" value="string?" style="shape=partialRectangle;html=1;whiteSpace=wrap;connectable=0;strokeColor=inherit;overflow=hidden;fillColor=none;top=0;left=0;bottom=0;right=0;pointerEvents=1;fontSize=16;" vertex="1" parent="db_hWNf274ALsjG5QtfP-217">
          <mxGeometry x="210" width="70" height="40" as="geometry">
            <mxRectangle width="70" height="40" as="alternateBounds" />
          </mxGeometry>
        </mxCell>
        <mxCell id="db_hWNf274ALsjG5QtfP-221" value="" style="shape=tableRow;horizontal=0;startSize=0;swimlaneHead=0;swimlaneBody=0;strokeColor=inherit;top=0;left=0;bottom=0;right=0;collapsible=0;dropTarget=0;fillColor=none;points=[[0,0.5],[1,0.5]];portConstraint=eastwest;fontSize=16;" vertex="1" parent="db_hWNf274ALsjG5QtfP-216">
          <mxGeometry y="70" width="280" height="40" as="geometry" />
        </mxCell>
        <mxCell id="db_hWNf274ALsjG5QtfP-222" value="" style="shape=partialRectangle;html=1;whiteSpace=wrap;connectable=0;strokeColor=inherit;overflow=hidden;fillColor=none;top=0;left=0;bottom=0;right=0;pointerEvents=1;fontSize=16;" vertex="1" parent="db_hWNf274ALsjG5QtfP-221">
          <mxGeometry width="50" height="40" as="geometry">
            <mxRectangle width="50" height="40" as="alternateBounds" />
          </mxGeometry>
        </mxCell>
        <mxCell id="db_hWNf274ALsjG5QtfP-223" value="FullName" style="shape=partialRectangle;html=1;whiteSpace=wrap;connectable=0;strokeColor=inherit;overflow=hidden;fillColor=none;top=0;left=0;bottom=0;right=0;pointerEvents=1;fontSize=16;" vertex="1" parent="db_hWNf274ALsjG5QtfP-221">
          <mxGeometry x="50" width="160" height="40" as="geometry">
            <mxRectangle width="160" height="40" as="alternateBounds" />
          </mxGeometry>
        </mxCell>
        <mxCell id="db_hWNf274ALsjG5QtfP-224" value="string" style="shape=partialRectangle;html=1;whiteSpace=wrap;connectable=0;strokeColor=inherit;overflow=hidden;fillColor=none;top=0;left=0;bottom=0;right=0;pointerEvents=1;fontSize=16;" vertex="1" parent="db_hWNf274ALsjG5QtfP-221">
          <mxGeometry x="210" width="70" height="40" as="geometry">
            <mxRectangle width="70" height="40" as="alternateBounds" />
          </mxGeometry>
        </mxCell>
        <mxCell id="db_hWNf274ALsjG5QtfP-225" value="" style="shape=tableRow;horizontal=0;startSize=0;swimlaneHead=0;swimlaneBody=0;strokeColor=inherit;top=0;left=0;bottom=0;right=0;collapsible=0;dropTarget=0;fillColor=none;points=[[0,0.5],[1,0.5]];portConstraint=eastwest;fontSize=16;" vertex="1" parent="db_hWNf274ALsjG5QtfP-216">
          <mxGeometry y="110" width="280" height="40" as="geometry" />
        </mxCell>
        <mxCell id="db_hWNf274ALsjG5QtfP-226" value="" style="shape=partialRectangle;html=1;whiteSpace=wrap;connectable=0;strokeColor=inherit;overflow=hidden;fillColor=none;top=0;left=0;bottom=0;right=0;pointerEvents=1;fontSize=16;" vertex="1" parent="db_hWNf274ALsjG5QtfP-225">
          <mxGeometry width="50" height="40" as="geometry">
            <mxRectangle width="50" height="40" as="alternateBounds" />
          </mxGeometry>
        </mxCell>
        <mxCell id="db_hWNf274ALsjG5QtfP-227" value="Email" style="shape=partialRectangle;html=1;whiteSpace=wrap;connectable=0;strokeColor=inherit;overflow=hidden;fillColor=none;top=0;left=0;bottom=0;right=0;pointerEvents=1;fontSize=16;" vertex="1" parent="db_hWNf274ALsjG5QtfP-225">
          <mxGeometry x="50" width="160" height="40" as="geometry">
            <mxRectangle width="160" height="40" as="alternateBounds" />
          </mxGeometry>
        </mxCell>
        <mxCell id="db_hWNf274ALsjG5QtfP-228" value="string" style="shape=partialRectangle;html=1;whiteSpace=wrap;connectable=0;strokeColor=inherit;overflow=hidden;fillColor=none;top=0;left=0;bottom=0;right=0;pointerEvents=1;fontSize=16;" vertex="1" parent="db_hWNf274ALsjG5QtfP-225">
          <mxGeometry x="210" width="70" height="40" as="geometry">
            <mxRectangle width="70" height="40" as="alternateBounds" />
          </mxGeometry>
        </mxCell>
        <mxCell id="db_hWNf274ALsjG5QtfP-229" value="" style="shape=tableRow;horizontal=0;startSize=0;swimlaneHead=0;swimlaneBody=0;strokeColor=inherit;top=0;left=0;bottom=0;right=0;collapsible=0;dropTarget=0;fillColor=none;points=[[0,0.5],[1,0.5]];portConstraint=eastwest;fontSize=16;" vertex="1" parent="db_hWNf274ALsjG5QtfP-216">
          <mxGeometry y="150" width="280" height="40" as="geometry" />
        </mxCell>
        <mxCell id="db_hWNf274ALsjG5QtfP-230" value="" style="shape=partialRectangle;html=1;whiteSpace=wrap;connectable=0;strokeColor=inherit;overflow=hidden;fillColor=none;top=0;left=0;bottom=0;right=0;pointerEvents=1;fontSize=16;" vertex="1" parent="db_hWNf274ALsjG5QtfP-229">
          <mxGeometry width="50" height="40" as="geometry">
            <mxRectangle width="50" height="40" as="alternateBounds" />
          </mxGeometry>
        </mxCell>
        <mxCell id="db_hWNf274ALsjG5QtfP-231" value="Password" style="shape=partialRectangle;html=1;whiteSpace=wrap;connectable=0;strokeColor=inherit;overflow=hidden;fillColor=none;top=0;left=0;bottom=0;right=0;pointerEvents=1;fontSize=16;" vertex="1" parent="db_hWNf274ALsjG5QtfP-229">
          <mxGeometry x="50" width="160" height="40" as="geometry">
            <mxRectangle width="160" height="40" as="alternateBounds" />
          </mxGeometry>
        </mxCell>
        <mxCell id="db_hWNf274ALsjG5QtfP-232" value="string" style="shape=partialRectangle;html=1;whiteSpace=wrap;connectable=0;strokeColor=inherit;overflow=hidden;fillColor=none;top=0;left=0;bottom=0;right=0;pointerEvents=1;fontSize=16;" vertex="1" parent="db_hWNf274ALsjG5QtfP-229">
          <mxGeometry x="210" width="70" height="40" as="geometry">
            <mxRectangle width="70" height="40" as="alternateBounds" />
          </mxGeometry>
        </mxCell>
        <mxCell id="db_hWNf274ALsjG5QtfP-233" value="" style="shape=tableRow;horizontal=0;startSize=0;swimlaneHead=0;swimlaneBody=0;strokeColor=inherit;top=0;left=0;bottom=0;right=0;collapsible=0;dropTarget=0;fillColor=none;points=[[0,0.5],[1,0.5]];portConstraint=eastwest;fontSize=16;" vertex="1" parent="db_hWNf274ALsjG5QtfP-216">
          <mxGeometry y="190" width="280" height="40" as="geometry" />
        </mxCell>
        <mxCell id="db_hWNf274ALsjG5QtfP-234" value="" style="shape=partialRectangle;html=1;whiteSpace=wrap;connectable=0;strokeColor=inherit;overflow=hidden;fillColor=none;top=0;left=0;bottom=0;right=0;pointerEvents=1;fontSize=16;" vertex="1" parent="db_hWNf274ALsjG5QtfP-233">
          <mxGeometry width="50" height="40" as="geometry">
            <mxRectangle width="50" height="40" as="alternateBounds" />
          </mxGeometry>
        </mxCell>
        <mxCell id="db_hWNf274ALsjG5QtfP-235" value="Note" style="shape=partialRectangle;html=1;whiteSpace=wrap;connectable=0;strokeColor=inherit;overflow=hidden;fillColor=none;top=0;left=0;bottom=0;right=0;pointerEvents=1;fontSize=16;" vertex="1" parent="db_hWNf274ALsjG5QtfP-233">
          <mxGeometry x="50" width="160" height="40" as="geometry">
            <mxRectangle width="160" height="40" as="alternateBounds" />
          </mxGeometry>
        </mxCell>
        <mxCell id="db_hWNf274ALsjG5QtfP-236" value="string?" style="shape=partialRectangle;html=1;whiteSpace=wrap;connectable=0;strokeColor=inherit;overflow=hidden;fillColor=none;top=0;left=0;bottom=0;right=0;pointerEvents=1;fontSize=16;" vertex="1" parent="db_hWNf274ALsjG5QtfP-233">
          <mxGeometry x="210" width="70" height="40" as="geometry">
            <mxRectangle width="70" height="40" as="alternateBounds" />
          </mxGeometry>
        </mxCell>
        <mxCell id="db_hWNf274ALsjG5QtfP-237" value="" style="shape=tableRow;horizontal=0;startSize=0;swimlaneHead=0;swimlaneBody=0;strokeColor=inherit;top=0;left=0;bottom=0;right=0;collapsible=0;dropTarget=0;fillColor=none;points=[[0,0.5],[1,0.5]];portConstraint=eastwest;fontSize=16;" vertex="1" parent="db_hWNf274ALsjG5QtfP-216">
          <mxGeometry y="230" width="280" height="40" as="geometry" />
        </mxCell>
        <mxCell id="db_hWNf274ALsjG5QtfP-238" value="FK" style="shape=partialRectangle;html=1;whiteSpace=wrap;connectable=0;strokeColor=inherit;overflow=hidden;fillColor=none;top=0;left=0;bottom=0;right=0;pointerEvents=1;fontSize=16;" vertex="1" parent="db_hWNf274ALsjG5QtfP-237">
          <mxGeometry width="50" height="40" as="geometry">
            <mxRectangle width="50" height="40" as="alternateBounds" />
          </mxGeometry>
        </mxCell>
        <mxCell id="db_hWNf274ALsjG5QtfP-239" value="DiscountCodeID" style="shape=partialRectangle;html=1;whiteSpace=wrap;connectable=0;strokeColor=inherit;overflow=hidden;fillColor=none;top=0;left=0;bottom=0;right=0;pointerEvents=1;fontSize=16;" vertex="1" parent="db_hWNf274ALsjG5QtfP-237">
          <mxGeometry x="50" width="160" height="40" as="geometry">
            <mxRectangle width="160" height="40" as="alternateBounds" />
          </mxGeometry>
        </mxCell>
        <mxCell id="db_hWNf274ALsjG5QtfP-240" value="string" style="shape=partialRectangle;html=1;whiteSpace=wrap;connectable=0;strokeColor=inherit;overflow=hidden;fillColor=none;top=0;left=0;bottom=0;right=0;pointerEvents=1;fontSize=16;" vertex="1" parent="db_hWNf274ALsjG5QtfP-237">
          <mxGeometry x="210" width="70" height="40" as="geometry">
            <mxRectangle width="70" height="40" as="alternateBounds" />
          </mxGeometry>
        </mxCell>
        <mxCell id="db_hWNf274ALsjG5QtfP-241" value="" style="shape=tableRow;horizontal=0;startSize=0;swimlaneHead=0;swimlaneBody=0;strokeColor=inherit;top=0;left=0;bottom=0;right=0;collapsible=0;dropTarget=0;fillColor=none;points=[[0,0.5],[1,0.5]];portConstraint=eastwest;fontSize=16;" vertex="1" parent="db_hWNf274ALsjG5QtfP-216">
          <mxGeometry y="270" width="280" height="40" as="geometry" />
        </mxCell>
        <mxCell id="db_hWNf274ALsjG5QtfP-242" value="FK" style="shape=partialRectangle;html=1;whiteSpace=wrap;connectable=0;strokeColor=inherit;overflow=hidden;fillColor=none;top=0;left=0;bottom=0;right=0;pointerEvents=1;fontSize=16;" vertex="1" parent="db_hWNf274ALsjG5QtfP-241">
          <mxGeometry width="50" height="40" as="geometry">
            <mxRectangle width="50" height="40" as="alternateBounds" />
          </mxGeometry>
        </mxCell>
        <mxCell id="db_hWNf274ALsjG5QtfP-243" value="RoleID" style="shape=partialRectangle;html=1;whiteSpace=wrap;connectable=0;strokeColor=inherit;overflow=hidden;fillColor=none;top=0;left=0;bottom=0;right=0;pointerEvents=1;fontSize=16;" vertex="1" parent="db_hWNf274ALsjG5QtfP-241">
          <mxGeometry x="50" width="160" height="40" as="geometry">
            <mxRectangle width="160" height="40" as="alternateBounds" />
          </mxGeometry>
        </mxCell>
        <mxCell id="db_hWNf274ALsjG5QtfP-244" value="string" style="shape=partialRectangle;html=1;whiteSpace=wrap;connectable=0;strokeColor=inherit;overflow=hidden;fillColor=none;top=0;left=0;bottom=0;right=0;pointerEvents=1;fontSize=16;" vertex="1" parent="db_hWNf274ALsjG5QtfP-241">
          <mxGeometry x="210" width="70" height="40" as="geometry">
            <mxRectangle width="70" height="40" as="alternateBounds" />
          </mxGeometry>
        </mxCell>
        <mxCell id="db_hWNf274ALsjG5QtfP-245" value="" style="endArrow=classic;html=1;rounded=0;exitX=0;exitY=0.5;exitDx=0;exitDy=0;entryX=0;entryY=0.5;entryDx=0;entryDy=0;" edge="1" parent="1" source="db_hWNf274ALsjG5QtfP-16" target="db_hWNf274ALsjG5QtfP-237">
          <mxGeometry width="50" height="50" relative="1" as="geometry">
            <mxPoint x="630" y="30" as="sourcePoint" />
            <mxPoint x="680" y="-20" as="targetPoint" />
            <Array as="points">
              <mxPoint x="220" y="130" />
              <mxPoint x="220" y="-90" />
            </Array>
          </mxGeometry>
        </mxCell>
        <mxCell id="db_hWNf274ALsjG5QtfP-246" value="Role" style="shape=table;startSize=30;container=1;collapsible=0;childLayout=tableLayout;strokeColor=default;fontSize=16;" vertex="1" parent="1">
          <mxGeometry x="670" y="-290" width="280" height="150" as="geometry" />
        </mxCell>
        <mxCell id="db_hWNf274ALsjG5QtfP-247" value="" style="shape=tableRow;horizontal=0;startSize=0;swimlaneHead=0;swimlaneBody=0;strokeColor=inherit;top=0;left=0;bottom=0;right=0;collapsible=0;dropTarget=0;fillColor=none;points=[[0,0.5],[1,0.5]];portConstraint=eastwest;fontSize=16;" vertex="1" parent="db_hWNf274ALsjG5QtfP-246">
          <mxGeometry y="30" width="280" height="40" as="geometry" />
        </mxCell>
        <mxCell id="db_hWNf274ALsjG5QtfP-248" value="PK" style="shape=partialRectangle;html=1;whiteSpace=wrap;connectable=0;strokeColor=inherit;overflow=hidden;fillColor=none;top=0;left=0;bottom=0;right=0;pointerEvents=1;fontSize=16;" vertex="1" parent="db_hWNf274ALsjG5QtfP-247">
          <mxGeometry width="50" height="40" as="geometry">
            <mxRectangle width="50" height="40" as="alternateBounds" />
          </mxGeometry>
        </mxCell>
        <mxCell id="db_hWNf274ALsjG5QtfP-249" value="RoleID" style="shape=partialRectangle;html=1;whiteSpace=wrap;connectable=0;strokeColor=inherit;overflow=hidden;fillColor=none;top=0;left=0;bottom=0;right=0;pointerEvents=1;fontSize=16;" vertex="1" parent="db_hWNf274ALsjG5QtfP-247">
          <mxGeometry x="50" width="160" height="40" as="geometry">
            <mxRectangle width="160" height="40" as="alternateBounds" />
          </mxGeometry>
        </mxCell>
        <mxCell id="db_hWNf274ALsjG5QtfP-250" value="string?" style="shape=partialRectangle;html=1;whiteSpace=wrap;connectable=0;strokeColor=inherit;overflow=hidden;fillColor=none;top=0;left=0;bottom=0;right=0;pointerEvents=1;fontSize=16;" vertex="1" parent="db_hWNf274ALsjG5QtfP-247">
          <mxGeometry x="210" width="70" height="40" as="geometry">
            <mxRectangle width="70" height="40" as="alternateBounds" />
          </mxGeometry>
        </mxCell>
        <mxCell id="db_hWNf274ALsjG5QtfP-251" value="" style="shape=tableRow;horizontal=0;startSize=0;swimlaneHead=0;swimlaneBody=0;strokeColor=inherit;top=0;left=0;bottom=0;right=0;collapsible=0;dropTarget=0;fillColor=none;points=[[0,0.5],[1,0.5]];portConstraint=eastwest;fontSize=16;" vertex="1" parent="db_hWNf274ALsjG5QtfP-246">
          <mxGeometry y="70" width="280" height="40" as="geometry" />
        </mxCell>
        <mxCell id="db_hWNf274ALsjG5QtfP-252" value="" style="shape=partialRectangle;html=1;whiteSpace=wrap;connectable=0;strokeColor=inherit;overflow=hidden;fillColor=none;top=0;left=0;bottom=0;right=0;pointerEvents=1;fontSize=16;" vertex="1" parent="db_hWNf274ALsjG5QtfP-251">
          <mxGeometry width="50" height="40" as="geometry">
            <mxRectangle width="50" height="40" as="alternateBounds" />
          </mxGeometry>
        </mxCell>
        <mxCell id="db_hWNf274ALsjG5QtfP-253" value="RoleName" style="shape=partialRectangle;html=1;whiteSpace=wrap;connectable=0;strokeColor=inherit;overflow=hidden;fillColor=none;top=0;left=0;bottom=0;right=0;pointerEvents=1;fontSize=16;" vertex="1" parent="db_hWNf274ALsjG5QtfP-251">
          <mxGeometry x="50" width="160" height="40" as="geometry">
            <mxRectangle width="160" height="40" as="alternateBounds" />
          </mxGeometry>
        </mxCell>
        <mxCell id="db_hWNf274ALsjG5QtfP-254" value="string" style="shape=partialRectangle;html=1;whiteSpace=wrap;connectable=0;strokeColor=inherit;overflow=hidden;fillColor=none;top=0;left=0;bottom=0;right=0;pointerEvents=1;fontSize=16;" vertex="1" parent="db_hWNf274ALsjG5QtfP-251">
          <mxGeometry x="210" width="70" height="40" as="geometry">
            <mxRectangle width="70" height="40" as="alternateBounds" />
          </mxGeometry>
        </mxCell>
        <mxCell id="db_hWNf274ALsjG5QtfP-255" value="" style="shape=tableRow;horizontal=0;startSize=0;swimlaneHead=0;swimlaneBody=0;strokeColor=inherit;top=0;left=0;bottom=0;right=0;collapsible=0;dropTarget=0;fillColor=none;points=[[0,0.5],[1,0.5]];portConstraint=eastwest;fontSize=16;" vertex="1" parent="db_hWNf274ALsjG5QtfP-246">
          <mxGeometry y="110" width="280" height="40" as="geometry" />
        </mxCell>
        <mxCell id="db_hWNf274ALsjG5QtfP-256" value="" style="shape=partialRectangle;html=1;whiteSpace=wrap;connectable=0;strokeColor=inherit;overflow=hidden;fillColor=none;top=0;left=0;bottom=0;right=0;pointerEvents=1;fontSize=16;" vertex="1" parent="db_hWNf274ALsjG5QtfP-255">
          <mxGeometry width="50" height="40" as="geometry">
            <mxRectangle width="50" height="40" as="alternateBounds" />
          </mxGeometry>
        </mxCell>
        <mxCell id="db_hWNf274ALsjG5QtfP-257" value="RoleDescription" style="shape=partialRectangle;html=1;whiteSpace=wrap;connectable=0;strokeColor=inherit;overflow=hidden;fillColor=none;top=0;left=0;bottom=0;right=0;pointerEvents=1;fontSize=16;" vertex="1" parent="db_hWNf274ALsjG5QtfP-255">
          <mxGeometry x="50" width="160" height="40" as="geometry">
            <mxRectangle width="160" height="40" as="alternateBounds" />
          </mxGeometry>
        </mxCell>
        <mxCell id="db_hWNf274ALsjG5QtfP-258" value="string?" style="shape=partialRectangle;html=1;whiteSpace=wrap;connectable=0;strokeColor=inherit;overflow=hidden;fillColor=none;top=0;left=0;bottom=0;right=0;pointerEvents=1;fontSize=16;" vertex="1" parent="db_hWNf274ALsjG5QtfP-255">
          <mxGeometry x="210" width="70" height="40" as="geometry">
            <mxRectangle width="70" height="40" as="alternateBounds" />
          </mxGeometry>
        </mxCell>
        <mxCell id="db_hWNf274ALsjG5QtfP-263" value="" style="endArrow=classic;html=1;rounded=0;exitX=0;exitY=0.5;exitDx=0;exitDy=0;entryX=1;entryY=0.5;entryDx=0;entryDy=0;" edge="1" parent="1" source="db_hWNf274ALsjG5QtfP-247" target="db_hWNf274ALsjG5QtfP-241">
          <mxGeometry width="50" height="50" relative="1" as="geometry">
            <mxPoint x="460" y="20" as="sourcePoint" />
            <mxPoint x="510" y="-30" as="targetPoint" />
            <Array as="points">
              <mxPoint x="620" y="-240" />
              <mxPoint x="620" y="-50" />
            </Array>
          </mxGeometry>
        </mxCell>
      </root>
    </mxGraphModel>
  </diagram>
</mxfile>
